M48
; DRILL file {KiCad (7.0.0)} date Mon Mar 13 20:07:18 2023
; FORMAT={-:-/ absolute / metric / decimal}
; #@! TF.CreationDate,2023-03-13T20:07:18-03:00
; #@! TF.GenerationSoftware,Kicad,Pcbnew,(7.0.0)
; #@! TF.FileFunction,Plated,1,2,PTH
FMAT,2
METRIC
; #@! TA.AperFunction,Plated,PTH,ComponentDrill
T1C0.600
; #@! TA.AperFunction,Plated,PTH,ComponentDrill
T2C0.762
; #@! TA.AperFunction,Plated,PTH,ComponentDrill
T3C0.800
; #@! TA.AperFunction,Plated,PTH,ComponentDrill
T4C0.900
; #@! TA.AperFunction,Plated,PTH,ViaDrill
T5C1.000
; #@! TA.AperFunction,Plated,PTH,ComponentDrill
T6C1.000
; #@! TA.AperFunction,Plated,PTH,ComponentDrill
T7C1.100
; #@! TA.AperFunction,Plated,PTH,ComponentDrill
T8C1.200
; #@! TA.AperFunction,Plated,PTH,ComponentDrill
T9C1.300
; #@! TA.AperFunction,Plated,PTH,ComponentDrill
T10C1.400
; #@! TA.AperFunction,Plated,PTH,ComponentDrill
T11C1.500
; #@! TA.AperFunction,Plated,PTH,ComponentDrill
T12C1.600
; #@! TA.AperFunction,Plated,PTH,ComponentDrill
T13C2.000
%
G90
G05
T1
X47.879Y46.99
X47.879Y44.99
T2
X26.289Y66.48
X28.829Y66.48
X31.369Y66.48
X33.909Y66.48
X56.769Y66.48
X59.309Y66.48
X61.849Y66.48
X64.389Y66.48
X87.249Y66.48
X89.789Y66.48
X92.329Y66.48
X94.869Y66.48
T3
X20.32Y91.44
X22.479Y67.27
X22.479Y62.27
X23.749Y86.36
X23.749Y76.2
X24.765Y16.112
X24.765Y13.612
X26.274Y62.22
X26.274Y59.68
X26.274Y57.14
X26.274Y54.6
X30.48Y91.44
X32.639Y44.41
X32.639Y39.41
X33.894Y62.22
X33.894Y59.68
X33.894Y57.14
X33.894Y54.6
X36.449Y44.41
X36.449Y39.41
X36.454Y34.305
X36.454Y26.685
X38.989Y22.86
X38.989Y12.7
X38.994Y34.305
X38.994Y26.685
X39.37Y96.52
X40.259Y52.07
X41.529Y48.26
X41.529Y38.1
X41.534Y34.305
X41.534Y26.685
X44.069Y20.32
X44.074Y34.305
X44.074Y26.685
X46.569Y20.32
X46.614Y34.305
X46.614Y26.685
X49.154Y34.305
X49.154Y26.685
X49.53Y96.52
X50.419Y52.07
X51.689Y48.26
X51.689Y38.1
X51.694Y34.305
X51.694Y26.685
X52.959Y67.31
X52.959Y62.31
X54.229Y48.26
X54.229Y38.1
X54.234Y34.305
X54.234Y26.685
X56.754Y62.22
X56.754Y59.68
X56.754Y57.14
X56.754Y54.6
X56.769Y48.26
X56.769Y38.1
X56.774Y34.305
X56.774Y26.685
X58.42Y91.44
X59.314Y34.305
X59.314Y26.685
X60.579Y85.09
X60.579Y74.93
X61.854Y34.305
X61.854Y26.685
X64.374Y62.22
X64.374Y59.68
X64.374Y57.14
X64.374Y54.6
X64.394Y34.305
X64.394Y26.685
X68.58Y91.44
X78.105Y96.52
X79.629Y30.255
X83.439Y67.27
X83.439Y62.27
X87.129Y30.255
X87.249Y62.23
X87.249Y59.69
X87.249Y57.15
X87.249Y54.61
X88.265Y96.52
X94.869Y62.23
X94.869Y59.69
X94.869Y57.15
X94.869Y54.61
X97.155Y91.44
X103.759Y87.63
X103.759Y77.47
X107.315Y91.44
X108.899Y7.395
X113.919Y97.79
X113.919Y87.63
X116.399Y7.395
X121.539Y30.255
X121.539Y20.095
X124.079Y30.255
X124.079Y20.095
T4
X46.609Y12.7
X46.609Y10.16
X65.044Y77.598
X65.194Y84.541
X69.275Y77.47
X69.34Y84.475
X98.679Y85.09
X98.679Y77.47
X108.839Y85.09
X108.839Y77.47
T5
X18.669Y21.59
X30.48Y73.66
X54.229Y74.93
X68.199Y50.8
X87.249Y41.91
T6
X42.799Y60.96
X42.799Y57.46
X73.279Y60.96
X73.279Y57.46
X103.759Y60.96
X103.759Y57.46
X122.809Y12.475
X122.809Y8.975
T7
X25.019Y95.575
X30.099Y95.575
X63.119Y95.575
X68.199Y95.575
X101.219Y95.575
X106.299Y95.575
T8
X8.255Y20.557
X8.255Y16.747
X8.255Y12.937
X8.902Y60.27
X8.902Y56.46
X82.169Y22.635
X82.169Y17.635
X121.539Y91.44
X121.539Y63.5
X135.117Y34.345
X135.117Y30.535
X135.117Y26.725
X135.379Y67.31
X135.379Y63.5
X135.379Y59.69
X135.379Y55.88
X135.379Y52.07
X135.379Y48.26
T9
X3.779Y83.042
X3.779Y70.843
X9.779Y68.843
X15.779Y83.042
X15.779Y70.843
T10
X11.049Y99.06
X11.049Y93.98
X133.382Y90.805
X133.382Y85.725
X133.382Y80.645
T11
X19.685Y103.162
X25.135Y103.162
X30.585Y103.162
X38.862Y103.162
X44.312Y103.162
X49.762Y103.162
X58.039Y103.162
X63.489Y103.162
X68.939Y103.162
X77.216Y103.162
X82.666Y103.162
X88.116Y103.162
X96.393Y103.162
X101.843Y103.162
X107.293Y103.162
X115.57Y103.162
X121.02Y103.162
X126.47Y103.162
T12
X92.329Y32.795
X92.329Y17.555
T13
X42.799Y87.63
X42.799Y77.63
X82.169Y87.63
X82.169Y77.63
T0
M30
